<?xml version="1.0" standalone="no"?><!DOCTYPE svg PUBLIC "-//W3C//DTD SVG 1.1//EN" "http://www.w3.org/Graphics/SVG/1.1/DTD/svg11.dtd"><svg t="1724724266670" class="icon" viewBox="0 0 1024 1024" version="1.1" xmlns="http://www.w3.org/2000/svg" p-id="7882" xmlns:xlink="http://www.w3.org/1999/xlink" width="200" height="200"><path d="M966.392 448.741L851.745 249.689a27.039 27.039 0 0 0-23.431-13.544h-42.126l-78.386-135.769a27.04 27.04 0 0 0-23.417-13.52H454.539a27.039 27.039 0 0 0-23.4 13.49l-20.99 36.249-156.729 0.025a27.04 27.04 0 0 0-23.413 13.52L115.084 349.191a27.041 27.041 0 0 0 0 27.04l20.925 36.243-78.386 135.769a27.041 27.041 0 0 0 0 27.04l114.923 199.052a27.04 27.04 0 0 0 23.417 13.52h41.85l78.386 135.769a27.04 27.04 0 0 0 23.417 13.52h229.845a27.04 27.04 0 0 0 23.417-13.52l20.925-36.243h156.773a27.04 27.04 0 0 0 23.417-13.52l114.923-199.052a27.041 27.041 0 0 0 0-27.04l-20.925-36.243 78.386-135.769a27.04 27.04 0 0 0 0.015-27.016zM767.96 557.282l-219.424-0.026 82.291-142.529a4.517 4.517 0 0 0 0-4.507L462.345 118.403h219.439l84.889 147.035 0.003 0.004 84.888 147.032-83.604 144.808z m62.68-90.538h104.516l-78.388 135.767L804.51 512l26.13-45.256z m-208.921-54.27L540.73 552.748 517.204 512l27.429-47.509c0.031-0.054 0.042-0.115 0.07-0.17 0.125-0.24 0.228-0.49 0.31-0.753 0.028-0.091 0.062-0.179 0.084-0.271 0.082-0.341 0.139-0.693 0.139-1.059a4.46 4.46 0 0 0-0.139-1.059c-0.022-0.092-0.056-0.181-0.084-0.272a4.565 4.565 0 0 0-0.31-0.753c-0.029-0.055-0.039-0.116-0.07-0.17L429.711 260.932a4.509 4.509 0 0 0-3.904-2.254h-49.653l78.384-135.768 167.181 289.564zM365.744 258.678h-52.255l-52.259-90.514 156.787-0.024-52.273 90.538z m-62.664 0h-49.655a4.508 4.508 0 0 0-3.904 2.254l-82.29 142.528-23.526-40.748 109.719-190.038 49.656 86.004z m-131.946 156.05l84.891-147.036h54.856l0.009 0.001 0.009-0.001h112.307l109.718 190.039H368.347a4.508 4.508 0 0 0-3.904 2.254L195.961 751.802 86.244 561.763l84.89-147.035z m199.814 52.016h161.975l-23.527 40.749h-54.859c-0.037 0-0.073 0.014-0.11 0.015a4.484 4.484 0 0 0-2.044 0.548c-0.08 0.044-0.154 0.093-0.231 0.142a4.454 4.454 0 0 0-0.652 0.499c-0.068 0.063-0.139 0.122-0.203 0.189a4.439 4.439 0 0 0-0.662 0.86L335.712 708.799a4.515 4.515 0 0 0 0 4.506l24.828 43.003H203.769l167.179-289.564z m-5.205 298.578l26.129 45.257-52.258 90.511-78.384-135.768h104.513z m31.334 54.272l24.826 43.001a4.508 4.508 0 0 0 3.904 2.253h164.579l-23.524 40.749h-219.44l49.655-86.003z m31.331 36.241L344.82 711.052l109.719-190.038 82.288 142.528a4.508 4.508 0 0 0 3.904 2.253h336.963l-109.718 190.04H428.408z m114.923-199.053l-80.987-140.276h47.055l27.427 47.51c0.044 0.076 0.103 0.137 0.152 0.21 0.087 0.134 0.177 0.264 0.279 0.389 0.095 0.115 0.197 0.221 0.301 0.326 0.1 0.1 0.2 0.197 0.311 0.288 0.13 0.107 0.266 0.201 0.406 0.292 0.069 0.046 0.128 0.102 0.2 0.144 0.034 0.02 0.073 0.025 0.107 0.044 0.314 0.17 0.64 0.315 0.984 0.406 0.035 0.01 0.071 0.009 0.107 0.018 0.302 0.072 0.61 0.11 0.92 0.119 0.044 0.001 0.088 0.017 0.132 0.017 0.051 0 0.099-0.018 0.15-0.019 0.062 0.002 0.119 0.018 0.18 0.018l229.505 0.027a4.509 4.509 0 0 0 3.904-2.253l24.841-43.027 53.556 92.759 0.001 0.003 24.83 43.005H543.331z m292.512-199.051l24.828-43.003a4.517 4.517 0 0 0 0-4.507l-82.289-142.529h47.325l109.457 190.039h-99.321z" p-id="7883" fill="#7d33ff"></path></svg>