<?xml version="1.0" standalone="no"?><!DOCTYPE svg PUBLIC "-//W3C//DTD SVG 1.1//EN" "http://www.w3.org/Graphics/SVG/1.1/DTD/svg11.dtd"><svg t="1724724319307" class="icon" viewBox="0 0 1024 1024" version="1.1" xmlns="http://www.w3.org/2000/svg" p-id="8945" xmlns:xlink="http://www.w3.org/1999/xlink" width="200" height="200"><path d="M725.333333 228.693333l-25.6-119.893333-186.026666 133.546667-186.026667-133.546667-25.6 119.893333 211.626667 178.773334zM302.08 787.2l25.6 119.466667 186.026667-133.546667 186.026666 133.546667 25.6-119.466667-211.626666-178.773333zM910.933333 321.28l-119.893333-25.6-178.773333 211.626667 178.773333 212.053333 119.893333-26.026667-133.546666-186.026666zM232.533333 295.68l-119.893333 25.6 133.546667 186.026667-133.546667 186.026666 119.893333 26.026667 178.773334-212.053333z" fill="#7d33ff" p-id="8946"></path><path d="M512 508.16m-55.466667 0a55.466667 55.466667 0 1 0 110.933334 0 55.466667 55.466667 0 1 0-110.933334 0Z" fill="#7d33ff" p-id="8947"></path></svg>