<?xml version="1.0" standalone="no"?><!DOCTYPE svg PUBLIC "-//W3C//DTD SVG 1.1//EN" "http://www.w3.org/Graphics/SVG/1.1/DTD/svg11.dtd"><svg t="1724725402308" class="icon" viewBox="0 0 1024 1024" version="1.1" xmlns="http://www.w3.org/2000/svg" p-id="38999" xmlns:xlink="http://www.w3.org/1999/xlink" width="200" height="200"><path d="M639.789062 551.59274c-15.443347 0-30.890787 15.414061-30.890787 30.80561 0 15.413038 15.44744 30.828123 30.890787 30.828123 7.727302 0 23.173718-15.415085 23.173718-30.828123C662.961757 567.005778 647.516364 551.59274 639.789062 551.59274z" fill="#7d33ff" p-id="39000"></path><path d="M369.394903 505.391489c0 23.088858-15.446417 261.867126 216.309187 84.702124C369.394903 713.342658 369.394903 505.391489 369.394903 505.391489z" fill="#7d33ff" p-id="39001"></path><path d="M523.922517 412.949077c0-23.109324-23.193162-53.915957-61.833764-38.523385-38.609901 7.717775-54.055295 77.048817-54.055295 77.048817-23.172695 123.227556 77.248457 69.307506 77.248457 69.307506s7.727302 84.72259 69.531389 46.222741c38.617065-30.830169 46.335157-107.833961 46.335157-107.833961C608.898276 359.03312 523.922517 412.949077 523.922517 412.949077zM500.729355 443.75878c-7.720138 15.413038-23.165532 30.803563-30.89181 30.803563-15.467907-7.695263-15.467907-23.086811-7.748792-46.219671 7.748792-15.392572 15.47507-30.785144 30.920464-30.785144C500.729355 405.252791 508.45461 420.645362 500.729355 443.75878zM577.985999 474.561319c-7.727302 15.418154-15.446417 23.113417-23.172695 23.113417-7.720138-7.695263-15.446417-23.113417-7.720138-38.502919 7.720138-15.413038 15.446417-23.109324 23.165532-23.109324C585.70409 436.062494 585.70409 459.171818 577.985999 474.561319z" fill="#7d33ff" p-id="39002"></path><path d="M338.50207 459.171818c-7.725255 0-23.193162 7.695263-23.193162 23.086811 0 15.416108 15.467907 30.830169 23.193162 30.830169 15.446417 0 23.165532-15.414061 23.165532-30.830169C361.667602 466.866057 353.94951 459.171818 338.50207 459.171818z" fill="#7d33ff" p-id="39003"></path><path d="M510.741793 67.192332c-245.837897 0-445.133922 198.615547-445.133922 443.589934 0 244.979504 199.296024 443.571515 445.133922 443.571515 245.838921 0 445.134945-198.590987 445.134945-443.571515C955.876739 265.807878 756.581737 67.192332 510.741793 67.192332zM801.545607 559.309492c0 0-57.048588 61.612243-131.753001 77.004815 0 0 0 92.444459 0 146.355299 0 0 23.642412 92.396363-115.419342 23.087834l-87.105346-76.998675-83.691457 61.607126c0 0-84.365843 61.61429-107.537515-53.911864 0 0 0.323378-184.861288 23.49505-192.556551-23.172695-30.80868-77.074488-100.138698-77.074488-207.951169 0 0-7.64134-92.439342 123.693111-15.437597 46.358694 23.13286 54.109532 23.13286 77.27404 0 15.452557-23.087834 85.005436-92.39534 131.364129-100.114139 0 0 69.555949-23.110347 84.999295 77.026304l15.466884 100.135628c0 0-18.035487 53.918004 105.57985 53.918004C760.835796 451.475532 901.990296 451.475532 801.545607 559.309492z" fill="#7d33ff" p-id="39004"></path></svg>