<svg t="1733644643892" class="icon" viewBox="0 0 1024 1024" version="1.1" xmlns="http://www.w3.org/2000/svg" p-id="1517" width="320" height="320"><path d="M512 46.545455c257.070545 0 465.454545 208.384 465.454545 465.454545s-208.384 465.454545-465.454545 465.454545S46.545455 769.070545 46.545455 512 254.929455 46.545455 512 46.545455z m0 69.818181a395.636364 395.636364 0 1 0 0 791.272728 395.636364 395.636364 0 0 0 0-791.272728z" fill="#A5B1FF" p-id="1518" data-spm-anchor-id="a313x.search_index.0.i0.7f423a81E5JiIJ" class=""></path><path d="M170.123636 520.378182a270.010182 270.010182 0 0 1 353.931637-13.079273 193.256727 193.256727 0 0 0 257.489454-13.358545l31.650909-31.464728A34.909091 34.909091 0 0 1 862.487273 512l-31.697455 31.464727a263.074909 263.074909 0 0 1-350.487273 18.152728 200.192 200.192 0 0 0-262.423272 9.774545l-7.773091 7.307636a34.909091 34.909091 0 0 1-47.755637-50.967272l7.819637-7.307637z" fill="#A5B1FF" p-id="1519" data-spm-anchor-id="a313x.search_index.0.i3.7f423a81E5JiIJ" class="selected"></path></svg>