<svg t="1733668689449" class="icon" viewBox="0 0 1445 1024" version="1.1" xmlns="http://www.w3.org/2000/svg" p-id="6146" width="320" height="320"><path d="M1445.647059 963.764706H0v60.235294h1445.647059z" fill="#5182E4" fill-opacity=".3" p-id="6147"></path><path d="M120.470588 524.408471S284.732235 88.184471 503.808 60.054588C722.823529 31.924706 777.577412 256.843294 941.839059 284.973176 1106.160941 313.103059 1325.176471 125.711059 1325.176471 125.711059V903.529412H120.470588V524.408471z m0 166.430117V903.529412h1204.705883V528.203294s-219.015529 131.373176-383.337412 108.42353C777.637647 613.616941 722.823529 361.411765 503.808 361.411765 284.732235 361.411765 120.470588 690.838588 120.470588 690.838588z" fill="#A5B1FF" p-id="6148" data-spm-anchor-id="a313x.search_index.0.i34.7f423a81E5JiIJ" class="selected"></path><path d="M120.470588 690.838588S284.732235 361.411765 503.808 361.411765c219.015529 0 273.769412 252.205176 438.031059 275.215059 164.321882 22.949647 383.337412-108.423529 383.337412-108.42353V903.529412H120.470588v-212.690824z" fill="#A5B1FF" fill-opacity=".504" p-id="6149" data-spm-anchor-id="a313x.search_index.0.i35.7f423a81E5JiIJ" class="selected"></path></svg>