<svg t="1733842150428" class="icon" viewBox="0 0 1024 1024" version="1.1" xmlns="http://www.w3.org/2000/svg" p-id="4516" width="320" height="320"><path d="M560.256 52.184h3.72c93.68 7.344 173.688 35.608 237.568 84.424 62.992 48.304 109.296 100 137.616 153.696 2.672 5.112 3.208 11.08 1.488 16.592a19.816 19.816 0 0 1-10.736 12.648l-319.12 163.464a79.52 79.52 0 0 1-14.576 95.208 79.496 79.496 0 1 1-55.664-136.68V74.128a21.312 21.312 0 0 1 6.832-16.088 20.632 20.632 0 0 1 16.6-5.856h-3.728z m-19.248 432.824a36.056 36.056 0 0 0-36.128 36.072 36.04 36.04 0 0 0 36.128 36.08 36.032 36.032 0 0 0 36.12-36.08 36.04 36.04 0 0 0-36.12-36.12v0.048z m202.464-239.096a28.808 28.808 0 0 0-26.32 43.656 28.808 28.808 0 0 0 53.504-14.88c0-15.28-11.92-27.904-27.184-28.776z m0 0" fill="#d3d7fc" p-id="4517" data-spm-anchor-id="a313x.search_index.0.i1.64643a81YMPhhM" class=""></path><path d="M298.976 375.664a278.416 278.416 0 0 0-31.664 213.72 280.824 280.824 0 0 0 128.312 173.688 278.992 278.992 0 0 0 144.912 40.496c22.92 0 45.84-2.928 68.808-8.28 151.232-37.56 243.424-191.264 205.864-342.496a21.552 21.552 0 0 0-26.32-15.624 21.552 21.552 0 0 0-15.624 26.32c31.544 128.08-46.296 257.584-174.2 289.824a237.568 237.568 0 0 1-180.992-26.824 237.6 237.6 0 0 1-108.784-147.84 237.68 237.68 0 0 1 26.824-181.04A236.2 236.2 0 0 1 482.976 289.28a21.52 21.52 0 0 0 15.576-26.32 21.52 21.52 0 0 0-26.36-15.624 278.064 278.064 0 0 0-173.176 128.312h-0.04z m0 0" fill="#a7b1f9" p-id="4518" data-spm-anchor-id="a313x.search_index.0.i6.64643a81YMPhhM" class="selected"></path><path d="M988.432 425.456a21.624 21.624 0 0 0-42.448 8.272c44.4 227.344-104.888 448.408-332.264 492.336-227.344 44.352-448.408-104.928-492.336-332.32a418.64 418.64 0 0 1 63.976-315.208 418.056 418.056 0 0 1 267.832-177.6 21.624 21.624 0 1 0-8.272-42.4 462.8 462.8 0 0 0-295.216 196.144 458.448 458.448 0 0 0-70.768 347.392 460.248 460.248 0 0 0 195.68 295.68 460.992 460.992 0 0 0 258.072 79.496c29.984 0 59.88-2.928 89.256-8.784 250.912-48.304 415.304-292.192 366.536-543.008h-0.048z m0 0" fill="#a7b1f9" p-id="4519" data-spm-anchor-id="a313x.search_index.0.i5.64643a81YMPhhM" class="selected"></path></svg>