<?xml version="1.0" standalone="no"?><!DOCTYPE svg PUBLIC "-//W3C//DTD SVG 1.1//EN" "http://www.w3.org/Graphics/SVG/1.1/DTD/svg11.dtd"><svg t="1724725754481" class="icon" viewBox="0 0 1024 1024" version="1.1" xmlns="http://www.w3.org/2000/svg" p-id="69674" xmlns:xlink="http://www.w3.org/1999/xlink" width="200" height="200"><path d="M348.36 355.61a36 36 0 0 0-36 36v254.54a36 36 0 0 0 72 0V391.61a36 36 0 0 0-36-36zM737.21 367.55a36 36 0 0 0-50.84-2.72L544.71 492.1a36 36 0 0 0 0.64 54.12L687 667.63A36 36 0 1 0 733.86 613l-110.51-94.76 111.14-99.85a36 36 0 0 0 2.72-50.84z" p-id="69675" fill="#7d33ff"></path><path d="M910 228.46c-26.1-22.88-61.73-43.81-105.91-62.2-41.66-17.34-89.85-31.72-139.36-41.6A788.76 788.76 0 0 0 511 109c-83.82 0-191.07 21.85-279.88 57-46.8 18.53-84.7 39.15-112.66 61.27-36.63 29-55.21 60.18-55.21 92.7V701c0 72.36 91.14 123.41 167.6 153.5 88.57 34.85 196 56.5 280.4 56.5 76.07 0 182.87-21.5 272.11-54.77 48.54-18.1 87.86-38.07 116.89-59.36 39.15-28.73 59-60 59-92.87V320c0-32.08-16.57-62.88-49.25-91.54zM887.25 704c0 6-7.75 18.79-29.6 34.82-23.33 17.12-57.72 34.39-99.44 49.95-80.59 30-179.83 50.23-247 50.23-76 0-173.31-19.73-254-51.5-89.48-35.21-122-71-122-86.5V320c0-15.5 32.59-51.47 122.38-87 79.75-31.6 179.2-52 253.41-52 88.36 0 187.58 19.34 265.42 51.74 76.15 31.69 110.83 67.45 110.83 87.26z" p-id="69676" fill="#7d33ff"></path></svg>